<svg width="372" height="142" viewBox="0 0 372 142" fill="none" xmlns="http://www.w3.org/2000/svg">
<path d="M4.39424 46.2518C3.61322 46.2518 2.91899 46.0752 2.22476 45.6335C0.14205 44.3969 -0.638965 41.6588 0.575946 39.4506L21.6633 2.26445C22.8782 0.144581 25.5684 -0.650367 27.7379 0.586226C29.8206 1.82282 30.6016 4.56099 29.3867 6.76919L8.21253 44.0436C7.43151 45.4569 5.95627 46.2518 4.39424 46.2518Z" fill="#00B4EB"/>
<path d="M4.39424 82.2015C3.61322 82.2015 2.91899 82.0249 2.22476 81.5832C0.14205 80.3467 -0.638965 77.6085 0.575946 75.4003L21.6633 38.2142C22.8782 36.0943 25.5684 35.2993 27.7379 36.5359C29.8206 37.7725 30.6016 40.5107 29.3867 42.7189L8.21253 79.905C7.43151 81.4066 5.95627 82.2015 4.39424 82.2015Z" fill="white"/>
<path d="M39.2798 82.2015C38.4988 82.2015 37.8046 82.0249 37.0236 81.5832C34.9409 80.3467 34.1599 77.6085 35.3748 75.4003L56.4622 38.2142C57.6771 36.0943 60.3672 35.2993 62.5367 36.5359C64.6194 37.7725 65.4004 40.5107 64.1855 42.7189L43.0981 79.905C42.3171 81.4066 40.8419 82.2015 39.2798 82.2015Z" fill="#50B748"/>
<path d="M37.8906 53.9367C40.3349 53.9367 42.3163 51.9199 42.3163 49.432C42.3163 46.9441 40.3349 44.9272 37.8906 44.9272C35.4463 44.9272 33.4648 46.9441 33.4648 49.432C33.4648 51.9199 35.4463 53.9367 37.8906 53.9367Z" fill="#50B748"/>
<path d="M80.1527 93.5958C76.074 92.3592 72.5161 91.2993 72.5161 88.2961C72.5161 85.3813 76.1608 85.1163 77.7229 85.1163C80.8469 85.1163 85.1859 86.5295 88.8306 88.7377L89.2645 89.0027L92.4753 81.9365L92.215 81.7598C88.3967 79.1983 83.19 77.6084 78.4171 77.6084C69.6524 77.6084 63.9249 82.0248 63.9249 89.0027C63.9249 97.0406 70.7805 99.0721 76.3344 100.662C80.4998 101.899 84.1445 102.959 84.1445 106.05C84.1445 108.435 81.975 109.848 78.07 109.848C74.0781 109.848 69.0449 107.64 65.3134 104.283L64.8795 103.93L61.4951 110.908L61.7554 111.085C66.0944 114.971 72.0822 117.356 77.9832 117.356C87.0082 117.356 92.8225 112.763 92.8225 105.608C92.6489 97.3939 85.7933 95.274 80.1527 93.5958Z" fill="white"/>
<path d="M105.839 109.583V77.8733H97.8555V117.003H122.067V109.583H105.839Z" fill="white"/>
<path d="M147.406 77.8733H119.203V85.2045H130.918V117.003H139.076V85.2045H151.051L147.406 77.8733Z" fill="white"/>
<path d="M204.855 77.6975C193.226 77.6975 184.375 86.177 184.375 97.483C184.375 108.612 193.4 117.357 204.855 117.357C216.31 117.357 225.335 108.612 225.335 97.483C225.335 86.177 216.57 77.6975 204.855 77.6975ZM204.942 109.937C198.086 109.937 192.532 104.373 192.532 97.483C192.532 90.6817 198.086 85.1171 204.942 85.1171C211.624 85.1171 217.091 90.6817 217.091 97.483C217.091 104.373 211.71 109.937 204.942 109.937Z" fill="#50B748"/>
<path d="M255.1 96.3337C258.484 94.9204 260.567 91.8289 260.567 87.9425C260.567 81.7595 255.447 77.9614 247.203 77.9614H230.107V117.091H247.724C256.575 117.091 262.042 112.851 262.042 106.138C261.955 101.28 259.352 97.6586 255.1 96.3337ZM246.769 93.5072H238.004V85.0277H246.769H246.943C250.327 85.0277 252.323 86.5293 252.323 89.1791C252.323 91.9173 250.327 93.5072 246.769 93.5072ZM238.091 100.573H247.029C251.195 100.573 253.711 102.252 253.711 105.166C253.711 106.668 253.104 107.816 251.976 108.611C250.848 109.406 249.112 109.936 246.943 109.936H238.004L238.091 100.573Z" fill="#50B748"/>
<path d="M275.405 77.8733H267.335V117.003H275.405V77.8733Z" fill="#50B748"/>
<path d="M278.789 77.8733V85.2045H290.504V117.003H298.575V85.2045H310.29V77.8733H278.789Z" fill="#50B748"/>
<path d="M321.833 109.76V101.015H340.057V93.7723H321.833V85.1162H342.14V77.8733H313.763V117.003H342.834V109.76H321.833Z" fill="#50B748"/>
<path d="M355.677 109.583V77.8733H347.606V117.003H371.905V109.583H355.677Z" fill="#50B748"/>
<path d="M170.749 77.8733L159.207 101.899L153.48 90.3275H145.67L156.604 113.116H161.811L172.224 91.1225L172.311 117.003H179.687V77.8733H170.749Z" fill="#50B748"/>
<path d="M141.331 129.369V131.224H137.426V141.823H135.344V131.224H131.438V129.369H141.331Z" fill="white"/>
<path d="M153.74 136.17V141.823H151.744V136.7C151.744 135.286 150.876 134.403 149.488 134.403C147.839 134.403 146.798 135.728 146.798 137.406V141.823H144.802V129.28H146.798V134.403C147.492 133.078 148.62 132.46 150.269 132.46C152.438 132.548 153.74 133.961 153.74 136.17Z" fill="white"/>
<path d="M167.278 137.848H160.249C160.596 139.35 161.637 140.233 163.112 140.233C164.154 140.233 165.022 139.88 165.716 139.085L166.757 140.233C165.803 141.205 164.501 141.823 162.939 141.823C160.075 141.823 158.166 139.88 158.166 137.053C158.166 134.139 160.075 132.195 162.852 132.195C166.15 132.284 167.451 134.492 167.278 137.848ZM165.455 136.435C165.369 134.933 164.414 133.962 162.852 133.962C161.377 133.962 160.335 134.933 160.075 136.435H165.455Z" fill="white"/>
<path d="M185.416 131.224C182.986 131.224 181.077 133.167 181.077 135.64C181.077 138.113 182.986 140.057 185.416 140.057C186.631 140.057 187.932 139.527 188.8 138.555L190.015 139.968C188.8 141.205 186.978 142 185.242 142C181.684 142 178.907 139.262 178.907 135.64C178.907 132.107 181.684 129.369 185.329 129.369C187.064 129.369 188.8 130.076 190.015 131.312L188.8 132.814C187.932 131.754 186.717 131.224 185.416 131.224Z" fill="white"/>
<path d="M203.292 137.053C203.292 139.968 201.296 141.911 198.432 141.911C195.568 141.911 193.572 139.968 193.572 137.053C193.572 134.227 195.568 132.283 198.432 132.283C201.296 132.283 203.292 134.227 203.292 137.053ZM195.568 137.141C195.568 138.996 196.696 140.233 198.432 140.233C200.081 140.233 201.296 138.996 201.296 137.141C201.296 135.287 200.081 134.05 198.432 134.05C196.783 134.05 195.568 135.287 195.568 137.141Z" fill="white"/>
<path d="M216.916 135.904V141.822H214.92V136.523C214.92 135.109 214.052 134.226 212.664 134.226C211.102 134.226 210.147 135.374 210.06 136.788V141.822H208.064V132.371H210.06V134.226C210.755 132.901 211.883 132.371 213.532 132.371C215.614 132.283 216.916 133.696 216.916 135.904Z" fill="white"/>
<path d="M231.148 135.904V141.822H229.152V136.523C229.152 135.109 228.285 134.226 226.896 134.226C225.334 134.226 224.38 135.374 224.293 136.788V141.822H222.297V132.371H224.293V134.226C224.987 132.901 226.115 132.371 227.764 132.371C229.847 132.283 231.148 133.696 231.148 135.904Z" fill="white"/>
<path d="M244.685 137.848H237.656C238.003 139.35 239.044 140.233 240.52 140.233C241.561 140.233 242.429 139.88 243.123 139.085L244.164 140.233C243.21 141.205 241.908 141.823 240.346 141.823C237.482 141.823 235.573 139.88 235.573 137.053C235.573 134.139 237.482 132.195 240.259 132.195C243.644 132.284 244.945 134.492 244.685 137.848ZM242.949 136.435C242.863 134.933 241.908 133.962 240.346 133.962C238.871 133.962 237.829 134.933 237.656 136.435H242.949Z" fill="white"/>
<path d="M253.363 134.05C251.714 134.05 250.586 135.287 250.586 137.053C250.586 138.82 251.714 140.057 253.363 140.057C254.491 140.057 255.445 139.703 256.14 138.908L257.268 140.057C256.4 141.205 255.098 141.823 253.276 141.823C250.499 141.823 248.59 139.88 248.59 137.053C248.59 134.139 250.499 132.195 253.276 132.195C254.925 132.195 256.226 132.725 257.094 133.785L255.966 135.11C255.359 134.492 254.404 134.05 253.363 134.05Z" fill="white"/>
<path d="M267.161 141.205C266.467 141.646 265.686 141.911 264.905 141.911C263.517 141.911 262.302 141.117 262.302 139.173V134.227H261V132.725H262.302V130.164H264.298V132.725H267.075V134.227H264.298V138.732C264.298 139.703 264.645 140.057 265.339 140.057C265.773 140.057 266.207 139.88 266.727 139.615L267.161 141.205Z" fill="white"/>
<path d="M273.844 130.605C273.844 131.312 273.323 131.842 272.629 131.842C271.935 131.842 271.414 131.312 271.414 130.605C271.414 129.899 271.935 129.369 272.629 129.369C273.323 129.369 273.844 129.811 273.844 130.605ZM273.67 133.255V141.823H271.674V133.255H273.67Z" fill="white"/>
<path d="M288.162 137.053C288.162 139.968 286.166 141.911 283.302 141.911C280.438 141.911 278.442 139.968 278.442 137.053C278.442 134.227 280.438 132.283 283.302 132.283C286.166 132.283 288.162 134.227 288.162 137.053ZM280.438 137.141C280.438 138.996 281.653 140.233 283.302 140.233C284.951 140.233 286.166 138.996 286.166 137.141C286.166 135.287 284.951 134.05 283.302 134.05C281.566 134.05 280.438 135.287 280.438 137.141Z" fill="white"/>
<path d="M301.786 135.904V141.822H299.79V136.523C299.79 135.109 298.922 134.226 297.534 134.226C295.972 134.226 295.017 135.374 294.931 136.788V141.822H292.935V132.371H294.931V134.226C295.625 132.901 296.753 132.371 298.402 132.371C300.484 132.283 301.786 133.696 301.786 135.904Z" fill="white"/>
</svg>
